<svg width="40" height="40" viewBox="0 0 40 40" fill="none" xmlns="http://www.w3.org/2000/svg">
<circle cx="20" cy="20" r="20" fill="#0F141E"/>
<g clip-path="url(#clip0_86_5420)">
<path d="M16.6626 27.3125C23.4534 27.3125 27.1687 21.6851 27.1687 16.8065C27.1687 16.6483 27.1652 16.4865 27.1582 16.3283C27.8809 15.8057 28.5046 15.1583 29 14.4165C28.3269 14.716 27.6122 14.9116 26.8804 14.9966C27.651 14.5347 28.2279 13.8092 28.5043 12.9544C27.7794 13.384 26.9867 13.687 26.1601 13.8505C25.6031 13.2587 24.8667 12.8669 24.0648 12.7356C23.2628 12.6043 22.4399 12.7408 21.7233 13.1241C21.0067 13.5074 20.4363 14.1161 20.1004 14.856C19.7644 15.596 19.6816 16.426 19.8646 17.2178C18.3969 17.1441 16.961 16.7628 15.65 16.0986C14.339 15.4344 13.1823 14.5021 12.2547 13.3622C11.7833 14.175 11.639 15.1368 11.8513 16.0521C12.0635 16.9675 12.6163 17.7676 13.3973 18.2901C12.811 18.2714 12.2375 18.1136 11.7242 17.8295V17.8752C11.7237 18.7282 12.0186 19.555 12.5587 20.2151C13.0989 20.8753 13.851 21.328 14.6872 21.4963C14.144 21.6449 13.574 21.6666 13.0211 21.5596C13.2571 22.2931 13.7162 22.9347 14.3343 23.3948C14.9525 23.8549 15.6988 24.1105 16.4693 24.126C15.1613 25.1534 13.5456 25.7107 11.8824 25.708C11.5875 25.7076 11.2928 25.6895 11 25.6539C12.6896 26.7379 14.6551 27.3136 16.6626 27.3125Z" fill="#F5F5F5"/>
</g>
<defs>
<clipPath id="clip0_86_5420">
<rect width="18" height="18" fill="white" transform="translate(11 11)"/>
</clipPath>
</defs>
</svg>
