<svg width="40" height="40" viewBox="0 0 40 40" fill="none" xmlns="http://www.w3.org/2000/svg">
<circle cx="20" cy="20" r="20" fill="#0F141E"/>
<g clip-path="url(#clip0_86_5324)">
<path d="M27.6676 11H12.3289C11.5941 11 11 11.5801 11 12.2973V27.6992C11 28.4164 11.5941 29 12.3289 29H27.6676C28.4023 29 29 28.4164 29 27.7027V12.2973C29 11.5801 28.4023 11 27.6676 11ZM16.3402 26.3387H13.6684V17.7465H16.3402V26.3387ZM15.0043 16.5758C14.1465 16.5758 13.4539 15.8832 13.4539 15.0289C13.4539 14.1746 14.1465 13.482 15.0043 13.482C15.8586 13.482 16.5512 14.1746 16.5512 15.0289C16.5512 15.8797 15.8586 16.5758 15.0043 16.5758ZM26.3387 26.3387H23.6703V22.1621C23.6703 21.1672 23.6527 19.884 22.2816 19.884C20.893 19.884 20.682 20.9703 20.682 22.0918V26.3387H18.0172V17.7465H20.5766V18.9207H20.6117C20.9668 18.2457 21.8387 17.532 23.1359 17.532C25.8395 17.532 26.3387 19.3109 26.3387 21.6242V26.3387Z" fill="#F5F5F5"/>
</g>
<defs>
<clipPath id="clip0_86_5324">
<rect width="18" height="18" fill="white" transform="translate(11 11)"/>
</clipPath>
</defs>
</svg>
