<svg width="40" height="40" viewBox="0 0 40 40" fill="none" xmlns="http://www.w3.org/2000/svg">
<circle cx="20" cy="20" r="20" fill="#0F141E"/>
<path fill-rule="evenodd" clip-rule="evenodd" d="M22.91 26.69C22.9325 26.81 22.865 26.9375 22.7525 26.9825C21.905 27.32 20.975 27.5 20.015 27.5C18.3575 27.5 16.8275 26.9675 15.59 26.0525C15.485 25.9775 15.455 25.8275 15.5225 25.715C15.935 24.98 17.5475 22.6175 21.11 21.2975C21.245 21.245 21.395 21.3125 21.44 21.4475C22.3325 23.84 22.7525 25.865 22.91 26.69ZM27.365 21.416C27.0211 23.2302 26.0128 24.8508 24.5375 25.961C24.38 26.081 24.155 25.991 24.1175 25.8035C23.96 24.9935 23.5775 23.246 22.8425 21.1685C22.79 21.011 22.895 20.8385 23.06 20.816C24.9275 20.591 26.5625 20.951 27.1775 21.116C27.305 21.161 27.3875 21.2885 27.365 21.416ZM27.1925 19.8643C26.4275 19.7293 24.4775 19.4443 22.4825 19.6618C22.3625 19.6768 22.2575 19.6093 22.205 19.4968C22.175 19.4293 22.1525 19.3618 22.1225 19.2943C22.0025 19.0168 21.875 18.7318 21.7475 18.4543C21.68 18.3193 21.7475 18.1543 21.8825 18.0943C23.9825 17.1868 25.1525 16.0168 25.61 15.4918C25.7225 15.3643 25.9175 15.3718 26.0225 15.5068C26.9077 16.685 27.422 18.1001 27.5 19.5718C27.5075 19.7593 27.3575 19.8943 27.1925 19.8643ZM24.83 14.594C24.44 15.0665 23.345 16.1915 21.2675 17.0165C21.2074 17.0408 21.1404 17.042 21.0795 17.0198C21.0186 16.9977 20.968 16.9538 20.9375 16.8965C20.194 15.5635 19.3752 14.2739 18.485 13.034C18.3725 12.8765 18.4625 12.6515 18.65 12.6215C19.085 12.5465 19.5425 12.509 20.0075 12.509C21.8225 12.509 23.495 13.154 24.7925 14.234C24.905 14.3165 24.92 14.4815 24.83 14.594ZM19.265 17.63C16.4225 18.3425 13.91 18.44 12.995 18.455C12.8225 18.455 12.695 18.29 12.74 18.125C13.28 16.025 14.72 14.27 16.6175 13.3025C16.73 13.2425 16.8725 13.28 16.9475 13.385C17.3375 13.925 18.395 15.4475 19.43 17.24C19.5125 17.39 19.4375 17.585 19.265 17.63ZM20.69 19.6993C20.7575 19.8418 20.675 20.0143 20.525 20.0668C17.2025 21.1393 15.215 23.8018 14.615 24.7168C14.5175 24.8668 14.3075 24.8743 14.195 24.7393C13.145 23.4493 12.5075 21.9718 12.5075 20.1793V20.0443C12.5075 19.8943 12.6275 19.7743 12.7775 19.7818C13.7225 19.8193 16.805 19.6918 20.0075 18.7693C20.1275 18.7318 20.2625 18.7918 20.315 18.9043C20.4425 19.1668 20.57 19.4293 20.69 19.6993Z" fill="#F5F5F5"/>
</svg>
