<svg width="40" height="40" viewBox="0 0 40 40" fill="none" xmlns="http://www.w3.org/2000/svg">
<circle cx="20" cy="20" r="20" fill="#0F141E"/>
<path d="M16.8418 15.0526C17.2471 15.0451 17.6519 15.0867 18.0472 15.1764C18.38 15.249 18.696 15.3843 18.9784 15.5749C19.2392 15.7644 19.4456 16.0192 19.5768 16.3137C19.7275 16.6758 19.8003 17.0656 19.7902 17.4577C19.8074 17.8883 19.6974 18.3144 19.474 18.6829C19.2391 19.0309 18.9143 19.3089 18.5341 19.4873C19.05 19.6264 19.4994 19.9449 19.8014 20.3857C20.0913 20.8528 20.237 21.3949 20.2203 21.9444C20.2298 22.3824 20.1393 22.8169 19.9554 23.2147C19.7855 23.5617 19.5368 23.8641 19.229 24.0977C18.9122 24.3287 18.5556 24.4996 18.1771 24.6019C17.7846 24.7105 17.3791 24.7651 16.9718 24.7641H12.5V15.0526H16.8418ZM16.5838 18.9805C16.9023 18.9936 17.2157 18.8983 17.473 18.7101C17.5962 18.6004 17.692 18.4635 17.7528 18.3102C17.8136 18.1569 17.8377 17.9914 17.8232 17.8271C17.8314 17.6353 17.7932 17.4442 17.7118 17.2703C17.6428 17.1318 17.5354 17.016 17.4024 16.9367C17.2678 16.8495 17.1165 16.7912 16.9582 16.7654C16.7864 16.7321 16.6115 16.7169 16.4366 16.7202H14.5258V18.9892H16.5838V18.9805ZM16.6952 23.1151C16.8878 23.1177 17.08 23.0969 17.2675 23.0532C17.439 23.0153 17.6015 22.945 17.7465 22.8459C17.8884 22.7469 18.0032 22.6137 18.08 22.4586C18.1691 22.2608 18.21 22.0447 18.1994 21.828C18.2187 21.6306 18.1926 21.4314 18.123 21.2456C18.0533 21.0598 17.9421 20.8925 17.7978 20.7564C17.492 20.5311 17.1171 20.4195 16.7379 20.4408H14.5258V23.1151H16.6952Z" fill="#F5F5F5"/>
<path d="M23.1055 23.0791C23.2645 23.2265 23.4518 23.34 23.6561 23.4127C23.8603 23.4855 24.0772 23.516 24.2936 23.5023C24.6366 23.511 24.9729 23.4066 25.2508 23.2053C25.4768 23.0583 25.648 22.8408 25.7377 22.5866H27.3533C27.1812 23.3104 26.7608 23.951 26.1653 24.3971C25.594 24.7763 24.9189 24.9683 24.2335 24.9465C23.7444 24.9529 23.259 24.861 22.8061 24.6761C22.3964 24.5053 22.0289 24.247 21.7294 23.9194C21.431 23.5761 21.2018 23.1783 21.0543 22.7481C20.8888 22.2671 20.8078 21.7611 20.8149 21.2525C20.8119 20.7525 20.8956 20.2556 21.0624 19.7842C21.2864 19.121 21.7149 18.5457 22.2861 18.1411C22.8574 17.7365 23.5422 17.5232 24.2422 17.5319C24.759 17.5211 25.2701 17.6421 25.7272 17.8834C26.1404 18.11 26.4969 18.4273 26.7698 18.8115C27.049 19.2147 27.2491 19.6672 27.3595 20.1449C27.4806 20.658 27.5238 21.1864 27.4876 21.7123H22.6755C22.6365 22.2064 22.7907 22.6963 23.1055 23.0791ZM25.2167 19.3857C25.0821 19.251 24.9201 19.1468 24.7418 19.0799C24.5634 19.0131 24.3728 18.9853 24.1828 18.9984C23.9307 18.9888 23.6804 19.0446 23.4564 19.1605C23.2787 19.2583 23.1219 19.3899 22.9948 19.5478C22.8821 19.6959 22.7981 19.8638 22.7473 20.0428C22.7014 20.1921 22.6728 20.3462 22.6619 20.502H25.6424C25.6165 20.0958 25.4685 19.707 25.218 19.3863L25.2167 19.3857Z" fill="#F5F5F5"/>
<path d="M26.0125 15.7012H22.2776V16.6559H26.0125V15.7012Z" fill="#F5F5F5"/>
</svg>
