<svg width="191" height="68" viewBox="0 0 191 68" fill="none" xmlns="http://www.w3.org/2000/svg">
<path fill-rule="evenodd" clip-rule="evenodd" d="M23.9055 3.06971L4.97556 7.69506C0.0990558 12.3855 10.0182 16.6031 16.9521 18.1905C18.7051 17.093 20.7249 16.4 22.8749 16.2575C29.5983 15.8121 35.0487 20.9197 35.0487 27.6657C35.0487 33.2269 31.3448 38.1654 26.2771 39.9781L26.3465 49.5986L26.5353 49.5355C27.9386 49.0662 29.3467 48.5998 30.7557 48.133C33.5716 47.2002 36.3914 46.2661 39.1852 45.305C40.0346 44.9419 40.6438 44.5462 41.2811 43.87C43.5122 41.5034 44.4538 37.9227 44.4424 34.7317C44.421 28.8259 44.3156 22.9137 44.2103 17.0033C44.1558 13.9473 44.1013 10.8917 44.0585 7.83779C44.0013 3.69621 42.0324 0.532166 37.7666 0.0413242C37.6147 0.0238621 36.8777 0.00845203 36.5952 0.0025452C36.5273 0.00112583 36.4857 0.000255178 36.4847 3.66357e-05C36.4438 -0.00947352 28.9338 1.83499 25.4986 2.67869C24.6962 2.87575 24.1162 3.01822 23.9055 3.06971Z" fill="url(#paint0_linear_493_4219)"/>
<path fill-rule="evenodd" clip-rule="evenodd" d="M19.2501 66.7041C21.3577 67.5633 23.9646 67.2311 25.306 65.2407C26.0452 64.1442 26.4232 62.7576 26.4264 61.4434C26.4386 56.4745 26.3545 51.4525 26.3196 46.4778C26.274 39.9606 26.229 33.4436 26.1882 26.9264C26.176 24.9739 26.0402 23.2452 24.9798 21.5076C23.3122 18.7749 21.01 18.9523 18.2793 18.3739C14.887 17.6555 -0.466936 13.6857 4.83449 7.85077L4.97563 7.69531C4.97563 7.69531 0 9.57777 0 16.7798C0.00644569 18.0415 0.0130457 19.3032 0.0194914 20.5647C0.06641 29.5349 0.175912 38.5104 0.16437 47.48C0.159423 51.2941 -0.117817 57.3913 3.03218 58.8529C6.25502 60.3483 9.55304 62.0154 12.7656 63.565C13.0656 63.7097 13.3653 63.8546 13.6649 63.9996C15.5267 64.9011 17.3884 65.8026 19.2501 66.7041V66.7041Z" fill="url(#paint1_linear_493_4219)"/>
<path fill-rule="evenodd" clip-rule="evenodd" d="M26.3464 49.5986L8.60496 55.7164C8.60496 55.7164 7.64643 56.1667 7.64643 57.1897C7.64643 58.2127 7.61023 61.0677 7.61023 61.0677L19.2499 66.7039C19.2499 66.7039 25.5404 69.379 26.58 61.9927L26.3464 49.5986V49.5986Z" fill="#F3CA1D"/>
<path d="M113.35 62.9245V58.5764C115.147 58.5764 116.676 57.937 117.951 56.6709C119.213 55.3921 119.85 53.8575 119.85 52.0543V49.8803C117.913 51.3765 115.771 52.131 113.426 52.131C110.24 52.131 107.525 50.929 105.282 48.5375C103.395 46.5936 102.452 44.1638 102.452 41.2736V30.3267H106.862V41.2736C106.862 43.064 107.487 44.5986 108.761 45.8775C110.036 47.1435 111.565 47.7829 113.35 47.7829C115.147 47.7829 116.676 47.1435 117.951 45.8775C119.213 44.5986 119.85 43.064 119.85 41.2736V30.3267H124.184V52.0543C124.184 55.1108 123.126 57.6812 121.01 59.7786C118.894 61.8759 116.345 62.9245 113.35 62.9245V62.9245Z" fill="white"/>
<path d="M158.243 52.2077C155.452 52.2077 153.03 51.2613 150.952 49.3558C148.888 47.4631 147.728 45.1356 147.486 42.3861C147.384 42.0919 147.333 41.7467 147.333 41.3375C147.333 40.9922 147.358 40.698 147.409 40.4423C147.715 38.7414 148.034 37.5264 148.378 36.772C149.283 34.7258 150.774 33.0761 152.864 31.8228C154.508 30.8765 156.293 30.4033 158.243 30.4033C160.626 30.4033 162.768 31.1322 164.667 32.5773C167.598 34.8281 169.064 37.9229 169.064 41.8617C169.013 42.0153 168.988 42.1943 168.988 42.3861C163.915 42.3861 159.237 42.4117 154.955 42.4628H151.819C152.061 44.0103 152.801 45.3147 154.024 46.3633C155.235 47.412 156.65 47.9363 158.243 47.9363C160.231 47.9363 161.875 47.1306 163.163 45.5321L167.42 47.0411C166.477 48.5886 165.202 49.829 163.583 50.7881C161.965 51.7345 160.18 52.2077 158.243 52.2077ZM163.838 38.0508C162.551 35.8512 160.652 34.7514 158.166 34.7514C156.267 34.7514 154.611 35.5187 153.157 37.0661L152.558 38.0508H163.838Z" fill="#F6B621"/>
<path d="M191 52.2078H186.59V40.1483C186.59 38.6392 186.068 37.3731 185.022 36.3244C183.977 35.2758 182.703 34.7515 181.212 34.7515C179.72 34.7515 178.433 35.2758 177.362 36.3244C176.292 37.3731 175.756 38.6392 175.756 40.1483V52.2078H171.359V40.1483C171.359 37.4499 172.315 35.1351 174.227 33.2169C176.151 31.2858 178.471 30.3267 181.212 30.3267C183.901 30.3267 186.208 31.2858 188.12 33.2169C190.044 35.1351 191 37.4499 191 40.1483V52.2078V52.2078Z" fill="#F6B621"/>
<path d="M89.5696 30.4004C86.5234 30.4004 83.9489 31.4747 81.8331 33.6231C79.7173 35.7716 78.6595 38.3165 78.6595 41.2706C78.6595 44.3141 79.7173 46.8975 81.8331 49.0203C83.9489 51.1433 86.5234 52.2046 89.5696 52.2046C91.8511 52.2046 94.0179 51.463 96.0572 49.9539V52.2046H100.391V41.2706C100.391 38.2653 99.3328 35.7076 97.217 33.5847C95.1012 31.4619 92.5521 30.4004 89.5696 30.4004V30.4004ZM89.5696 34.7485C91.354 34.7485 92.8835 35.3879 94.1581 36.654C95.4327 37.9328 96.0572 39.4674 96.0572 41.2706C96.0572 43.112 95.4327 44.6594 94.1581 45.9128C92.8835 47.166 91.354 47.7799 89.5696 47.7799C87.7725 47.7799 86.2431 47.166 84.9685 45.9128C83.7067 44.6594 83.0694 43.112 83.0694 41.2706C83.0694 39.4674 83.7067 37.9328 84.9685 36.654C86.2431 35.3879 87.7725 34.7485 89.5696 34.7485Z" fill="white"/>
<path d="M61.7158 52.1968H57.3058V30.546C57.3058 27.592 58.2234 25.1493 60.0715 23.1927C62.2638 20.8013 65.0169 19.5991 68.3563 19.5991C69.7965 19.5991 71.1984 19.8804 72.5367 20.4176C74.8309 21.3767 76.6281 23.0904 77.9154 25.5969C78.7184 27.1955 79.1135 28.8708 79.1135 30.61C79.1135 31.4156 79.0115 32.2085 78.8204 33.0141C78.2213 35.3544 76.9213 37.3878 74.933 39.0759C72.8426 40.6361 70.4975 41.4034 67.9102 41.4034C65.7689 41.4034 63.7041 40.6489 61.7158 39.1526V52.1968V52.1968ZM68.2033 37.0553C70.0004 37.0553 71.5298 36.4159 72.8044 35.1499C74.0662 33.871 74.7035 32.3363 74.7035 30.546C74.7035 28.6918 74.0662 27.1443 72.8044 25.8911C71.5298 24.6506 70.0004 24.024 68.2033 24.024C66.419 24.024 64.8895 24.6506 63.6149 25.8911C62.3403 27.1443 61.7158 28.6918 61.7158 30.546C61.7158 32.3363 62.3403 33.871 63.6149 35.1499C64.8895 36.4159 66.419 37.0553 68.2033 37.0553Z" fill="white"/>
<path d="M130.722 52.2036H126.312V30.5528C126.312 27.5987 127.23 25.1561 129.078 23.1995C131.27 20.8081 134.024 19.606 137.363 19.606C138.803 19.606 140.205 19.8873 141.543 20.4244C143.838 21.3835 145.635 23.0971 146.922 25.6036C147.725 27.2022 148.12 28.8775 148.12 30.6168C148.12 31.4224 148.018 32.2153 147.827 33.021C147.228 35.3612 145.928 37.3946 143.94 39.0827C141.849 40.6429 139.504 41.4102 136.917 41.4102C134.775 41.4102 132.711 40.6557 130.722 39.1595V52.2036V52.2036ZM137.21 37.0621C139.007 37.0621 140.537 36.4227 141.811 35.1567C143.073 33.8778 143.71 32.3432 143.71 30.5528C143.71 28.6985 143.073 27.151 141.811 25.8978C140.537 24.6573 139.007 24.0307 137.21 24.0307C135.426 24.0307 133.896 24.6573 132.621 25.8978C131.347 27.151 130.722 28.6985 130.722 30.5528C130.722 32.3432 131.347 33.8778 132.621 35.1567C133.896 36.4227 135.426 37.0621 137.21 37.0621Z" fill="#F6B621"/>
<defs>
<linearGradient id="paint0_linear_493_4219" x1="3.67563" y1="24.7992" x2="44.4425" y2="24.7992" gradientUnits="userSpaceOnUse">
<stop stop-color="#F4DB1C"/>
<stop offset="0.721569" stop-color="#F3C81D"/>
<stop offset="1" stop-color="#F2B51E"/>
</linearGradient>
<linearGradient id="paint1_linear_493_4219" x1="0" y1="37.4222" x2="26.4276" y2="37.4222" gradientUnits="userSpaceOnUse">
<stop stop-color="#6AA9FF"/>
<stop offset="1" stop-color="#3F6FBE"/>
</linearGradient>
</defs>
</svg>
